<svg width="18" height="18" viewBox="0 0 18 18" fill="none" xmlns="http://www.w3.org/2000/svg">
<path d="M5.34375 4.5C5.34375 4.27622 5.43265 4.06161 5.59088 3.90338C5.74911 3.74514 5.96372 3.65625 6.1875 3.65625H15.1875C15.4113 3.65625 15.6259 3.74514 15.7841 3.90338C15.9424 4.06161 16.0312 4.27622 16.0312 4.5C16.0312 4.72378 15.9424 4.93839 15.7841 5.09662C15.6259 5.25486 15.4113 5.34375 15.1875 5.34375H6.1875C5.96372 5.34375 5.74911 5.25486 5.59088 5.09662C5.43265 4.93839 5.34375 4.72378 5.34375 4.5ZM15.1875 8.15625H6.1875C5.96372 8.15625 5.74911 8.24514 5.59088 8.40338C5.43265 8.56161 5.34375 8.77622 5.34375 9C5.34375 9.22378 5.43265 9.43839 5.59088 9.59662C5.74911 9.75485 5.96372 9.84375 6.1875 9.84375H15.1875C15.4113 9.84375 15.6259 9.75485 15.7841 9.59662C15.9424 9.43839 16.0312 9.22378 16.0312 9C16.0312 8.77622 15.9424 8.56161 15.7841 8.40338C15.6259 8.24514 15.4113 8.15625 15.1875 8.15625ZM15.1875 12.6562H6.1875C5.96372 12.6562 5.74911 12.7451 5.59088 12.9034C5.43265 13.0616 5.34375 13.2762 5.34375 13.5C5.34375 13.7238 5.43265 13.9384 5.59088 14.0966C5.74911 14.2549 5.96372 14.3438 6.1875 14.3438H15.1875C15.4113 14.3438 15.6259 14.2549 15.7841 14.0966C15.9424 13.9384 16.0312 13.7238 16.0312 13.5C16.0312 13.2762 15.9424 13.0616 15.7841 12.9034C15.6259 12.7451 15.4113 12.6562 15.1875 12.6562ZM3.09375 7.875C2.87125 7.875 2.65374 7.94098 2.46873 8.0646C2.28373 8.18821 2.13953 8.36391 2.05439 8.56948C1.96924 8.77505 1.94696 9.00125 1.99037 9.21948C2.03378 9.43771 2.14092 9.63816 2.29826 9.7955C2.45559 9.95283 2.65605 10.06 2.87427 10.1034C3.0925 10.1468 3.3187 10.1245 3.52427 10.0394C3.72984 9.95422 3.90554 9.81002 4.02915 9.62502C4.15277 9.44001 4.21875 9.2225 4.21875 9C4.21875 8.70163 4.10022 8.41548 3.88925 8.2045C3.67827 7.99353 3.39212 7.875 3.09375 7.875ZM3.09375 3.375C2.87125 3.375 2.65374 3.44098 2.46873 3.5646C2.28373 3.68821 2.13953 3.86391 2.05439 4.06948C1.96924 4.27505 1.94696 4.50125 1.99037 4.71948C2.03378 4.93771 2.14092 5.13816 2.29826 5.29549C2.45559 5.45283 2.65605 5.55998 2.87427 5.60338C3.0925 5.64679 3.3187 5.62451 3.52427 5.53936C3.72984 5.45422 3.90554 5.31002 4.02915 5.12502C4.15277 4.94001 4.21875 4.7225 4.21875 4.5C4.21875 4.20163 4.10022 3.91548 3.88925 3.7045C3.67827 3.49353 3.39212 3.375 3.09375 3.375ZM3.09375 12.375C2.87125 12.375 2.65374 12.441 2.46873 12.5646C2.28373 12.6882 2.13953 12.8639 2.05439 13.0695C1.96924 13.275 1.94696 13.5012 1.99037 13.7195C2.03378 13.9377 2.14092 14.1382 2.29826 14.2955C2.45559 14.4528 2.65605 14.56 2.87427 14.6034C3.0925 14.6468 3.3187 14.6245 3.52427 14.5394C3.72984 14.4542 3.90554 14.31 4.02915 14.125C4.15277 13.94 4.21875 13.7225 4.21875 13.5C4.21875 13.2016 4.10022 12.9155 3.88925 12.7045C3.67827 12.4935 3.39212 12.375 3.09375 12.375Z" fill="#9E9BAD"/>
</svg>
