<svg width="26" height="26" viewBox="0 0 26 26" fill="none" xmlns="http://www.w3.org/2000/svg">
<path d="M8.55548 0.783447C8.30626 0.874156 8.10328 1.06015 7.99119 1.30052C7.87911 1.54089 7.8671 1.81594 7.95781 2.06516L10.3519 8.64301C10.4427 8.89223 10.6287 9.09521 10.869 9.2073C11.1094 9.31938 11.3844 9.33139 11.6337 9.24068C12.4611 8.93972 13.3648 8.92019 14.2045 9.18513C15.0442 9.45006 15.773 9.98466 16.2779 10.706C16.7828 11.4274 17.0356 12.2951 16.9971 13.1748C16.9585 14.0545 16.6308 14.8968 16.0648 15.5713C15.4987 16.2457 14.726 16.7145 13.8663 16.905C13.0067 17.0955 12.1082 16.9971 11.3102 16.6249C10.5122 16.2527 9.85935 15.6277 9.4528 14.8467C9.04626 14.0656 8.90877 13.1723 9.06167 12.3052C9.08449 12.1758 9.0816 12.0432 9.05317 11.915C9.02473 11.7867 8.97131 11.6654 8.89596 11.5578C8.82061 11.4502 8.72479 11.3585 8.614 11.2879C8.5032 11.2174 8.37959 11.1693 8.25022 11.1466L1.35626 9.93115C1.22691 9.90833 1.09432 9.91122 0.966079 9.93965C0.837839 9.96808 0.716456 10.0215 0.608865 10.0969C0.501275 10.1722 0.409583 10.268 0.33903 10.3788C0.268476 10.4896 0.220442 10.6132 0.197673 10.7426C-0.299252 13.5608 0.147604 16.4642 1.46894 19.0026C2.79027 21.5409 4.91224 23.5724 7.50576 24.7818C10.0993 25.9913 13.0194 26.3113 15.8133 25.692C18.6071 25.0728 21.1186 23.549 22.9582 21.3569C24.7978 19.1648 25.8627 16.4271 25.9878 13.5681C26.1128 10.7092 25.291 7.88886 23.6499 5.54455C22.0087 3.20025 19.6399 1.46297 16.9107 0.602141C14.1816 -0.258687 11.2447 -0.194958 8.55548 0.783447ZM2.03782 12.0815L7.00029 12.957C6.996 13.6712 7.11902 14.3805 7.36359 15.0516C7.429 15.2313 7.50124 15.4005 7.58267 15.5731L3.45676 18.4689C2.34803 16.5325 1.85323 14.3052 2.03782 12.0815ZM4.60187 20.102L8.73653 17.2083C9.4234 17.9038 10.2695 18.4213 11.2015 18.716C12.1335 19.0108 13.1232 19.0738 14.0851 18.8998L15.8085 23.6346C13.7975 24.1624 11.6782 24.1107 9.69532 23.4856C7.71242 22.8606 5.94668 21.6876 4.60187 20.102ZM17.6878 22.9506L15.9645 18.2157C17.1967 17.5151 18.1411 16.4009 18.6303 15.0706C19.1195 13.7402 19.122 12.2796 18.6372 10.9477C18.1524 9.61569 17.2117 8.49837 15.9818 7.79371C14.7519 7.08906 13.3122 6.84259 11.918 7.09797L10.1946 2.3631C12.8479 1.66306 15.6671 1.98004 18.0987 3.25181C20.5304 4.52358 22.3988 6.6583 23.3374 9.23693C24.2759 11.8156 24.2167 14.6519 23.1715 17.1891C22.1262 19.7264 20.1704 21.7813 17.6878 22.9506Z" fill="#252836"/>
</svg>
