<svg width="21" height="21" viewBox="0 0 21 21" fill="none" xmlns="http://www.w3.org/2000/svg">
<path opacity="0.2" d="M18.0627 7.1024L18.9571 4.449C18.4324 3.69684 17.8099 3.01792 17.106 2.43014L14.3856 3.08773C14.0912 2.9285 13.7876 2.78693 13.4764 2.66376L12.2311 0.156142C11.3285 -0.00238586 10.4089 -0.0404205 9.49626 0.0430343L8.03815 2.43273C7.71712 2.52851 7.40204 2.64319 7.09455 2.77617L4.44115 1.88184C3.69193 2.40616 3.01568 3.02767 2.43012 3.73007L3.08771 6.45047C2.92848 6.74486 2.7869 7.04847 2.66374 7.35969L0.15612 8.60494C-0.00240771 9.50754 -0.0404427 10.4272 0.0430121 11.3398L2.43271 12.7979C2.52849 13.1189 2.64317 13.434 2.77615 13.7415L1.88182 16.3949C2.40647 17.1471 3.02897 17.826 3.7329 18.4138L6.4533 17.7562C6.74769 17.9154 7.0513 18.057 7.36251 18.1802L8.60777 20.6878C9.51037 20.8463 10.43 20.8843 11.3426 20.8009L12.8007 18.4112C13.1218 18.3154 13.4369 18.2007 13.7444 18.0677L16.3978 18.9621C17.1499 18.4374 17.8288 17.8149 18.4166 17.111L17.759 14.3906C17.9183 14.0962 18.0598 13.7926 18.183 13.4814L20.6906 12.2361C20.8491 11.3335 20.8872 10.4139 20.8037 9.50127L18.414 8.04316C18.3156 7.72292 18.1983 7.40879 18.0627 7.1024ZM11.8425 14.3348C11.0681 14.6166 10.2275 14.6625 9.42704 14.4666C8.62657 14.2708 7.90216 13.8419 7.34541 13.2343C6.78867 12.6268 6.42459 11.8677 6.29923 11.0532C6.17387 10.2387 6.29285 9.40535 6.64112 8.65847C6.9894 7.91159 7.55132 7.28476 8.25585 6.85725C8.96037 6.42973 9.77585 6.22073 10.5992 6.25668C11.4225 6.29263 12.2166 6.5719 12.8812 7.0592C13.5458 7.54649 14.0509 8.21991 14.3328 8.9943C14.7107 10.0327 14.6607 11.1788 14.1937 12.1803C13.7267 13.1818 12.8809 13.9568 11.8425 14.3348Z" fill="#CECBDE"/>
</svg>
