<svg width="32" height="32" viewBox="0 0 32 32" fill="none" xmlns="http://www.w3.org/2000/svg">
    <rect width="32" height="32" rx="10" fill="#252836" />
    <g clip-path="url(#clip0_1585_1164)">
        <path opacity="0.2"
            d="M20.7368 5.288L26.7221 21.7326C26.7977 21.9403 26.7877 22.1695 26.6943 22.3698C26.6009 22.5701 26.4318 22.7251 26.2241 22.8007L12.1287 27.931C11.921 28.0066 11.6918 27.9966 11.4915 27.9032C11.2912 27.8098 11.1362 27.6406 11.0606 27.433L5.07524 10.9883C4.99965 10.7807 5.00966 10.5514 5.10306 10.3511C5.19646 10.1508 5.36561 9.99584 5.5733 9.92024L9.48869 8.49516C9.22577 9.35773 9.25104 10.2825 9.56066 11.1294L9.84568 11.9125L17.6764 9.06232L17.3914 8.27924C17.0842 7.43143 16.5092 6.7068 15.7533 6.21503L19.6687 4.78994C19.8764 4.71435 20.1056 4.72436 20.3059 4.81776C20.5062 4.91117 20.6612 5.08032 20.7368 5.288Z"
            fill="#CECBDE" />
        <path
            d="M20.5266 16.8931C20.6022 17.1008 20.5922 17.33 20.4988 17.5303C20.4054 17.7306 20.2363 17.8856 20.0286 17.9612L13.764 20.2414C13.5563 20.317 13.3271 20.307 13.1268 20.2135C12.9264 20.1201 12.7714 19.951 12.6959 19.7433C12.6203 19.5356 12.6303 19.3064 12.7237 19.1061C12.8171 18.9058 12.9862 18.7508 13.1939 18.6752L19.4585 16.3951C19.6662 16.3195 19.8954 16.3295 20.0957 16.4229C20.296 16.5163 20.451 16.6855 20.5266 16.8931ZM18.3185 13.2628L12.0539 15.5429C11.8462 15.6185 11.677 15.7735 11.5836 15.9738C11.4902 16.1741 11.4802 16.4033 11.5558 16.611C11.6314 16.8187 11.7864 16.9878 11.9867 17.0812C12.187 17.1746 12.4162 17.1846 12.6239 17.1091L18.8885 14.8289C19.0962 14.7533 19.2653 14.5983 19.3587 14.398C19.4521 14.1977 19.4622 13.9685 19.3866 13.7608C19.311 13.5531 19.156 13.384 18.9557 13.2906C18.7554 13.1972 18.5262 13.1872 18.3185 13.2628ZM21.5199 5.00303L27.5052 21.4477C27.6564 21.863 27.6364 22.3214 27.4496 22.7221C27.2628 23.1227 26.9245 23.4327 26.5091 23.5838L12.4137 28.7141C11.9983 28.8653 11.5399 28.8453 11.1393 28.6585C10.7387 28.4717 10.4287 28.1334 10.2775 27.718L4.29218 11.2734C4.14099 10.858 4.16101 10.3996 4.34782 9.99901C4.53463 9.59839 4.87293 9.2884 5.2883 9.13721L8.83759 7.84538C9.09829 7.1926 9.49391 6.60224 9.99855 6.11295C10.5032 5.62366 11.1055 5.24646 11.766 5.00605C12.4265 4.76564 13.1304 4.66745 13.8315 4.71789C14.5326 4.76833 15.2151 4.96627 15.8344 5.29875L19.3837 4.00691C19.7991 3.85573 20.2575 3.87575 20.6581 4.06255C21.0587 4.24936 21.3687 4.58766 21.5199 5.00303ZM10.3438 10.8444L16.6084 8.56431C16.306 7.73357 15.686 7.05696 14.8848 6.68335C14.0836 6.30973 13.1667 6.2697 12.336 6.57206C11.5053 6.87443 10.8287 7.49442 10.455 8.29564C10.0814 9.09687 10.0414 10.0137 10.3438 10.8444ZM19.9537 5.57307L17.3353 6.52609C17.6965 6.9642 17.9803 7.46072 18.1745 7.99427L18.4595 8.77735C18.5351 8.98503 18.5251 9.21424 18.4317 9.41455C18.3383 9.61485 18.1692 9.76985 17.9615 9.84544L10.1307 12.6956C9.92302 12.7712 9.69381 12.7612 9.49351 12.6678C9.2932 12.5744 9.1382 12.4052 9.06261 12.1976L8.7776 11.4145C8.58341 10.8809 8.48167 10.3181 8.47674 9.75034L5.85833 10.7034L11.8437 27.148L25.9391 22.0177L19.9537 5.57307Z"
            fill="#706D7E" />
    </g>
    <defs>
        <clipPath id="clip0_1585_1164">
            <rect width="26.6667" height="26.6667" fill="white"
                transform="translate(2.66669 2.66669)" />
        </clipPath>
    </defs>
</svg>