<svg width="29" height="30" viewBox="0 0 29 30" fill="none" xmlns="http://www.w3.org/2000/svg">
    <path
        d="M19.602 15.5841C19.6928 15.8333 19.6807 16.1084 19.5687 16.3487C19.4566 16.5891 19.2536 16.7751 19.0044 16.8658L11.4868 19.602C11.2376 19.6927 10.9626 19.6807 10.7222 19.5686C10.4818 19.4565 10.2958 19.2535 10.2051 19.0043C10.1144 18.7551 10.1264 18.48 10.2385 18.2397C10.3506 17.9993 10.5536 17.8133 10.8028 17.7226L18.3203 14.9864C18.5696 14.8957 18.8446 14.9077 19.085 15.0198C19.3253 15.1319 19.5113 15.3349 19.602 15.5841ZM16.9523 11.2277L9.43471 13.9638C9.18549 14.0545 8.98251 14.2405 8.87043 14.4809C8.75834 14.7213 8.74633 14.9963 8.83704 15.2455C8.92775 15.4948 9.11375 15.6977 9.35412 15.8098C9.59448 15.9219 9.86953 15.9339 10.1188 15.8432L17.6363 13.107C17.8855 13.0163 18.0885 12.8303 18.2006 12.59C18.3127 12.3496 18.3247 12.0746 18.234 11.8253C18.1433 11.5761 17.9573 11.3731 17.7169 11.261C17.4765 11.149 17.2015 11.1369 16.9523 11.2277ZM20.7939 1.31598L27.9764 21.0495C28.1578 21.548 28.1338 22.0981 27.9096 22.5788C27.6854 23.0595 27.2795 23.4315 26.781 23.6129L9.86655 29.7693C9.36811 29.9507 8.81801 29.9267 8.33728 29.7025C7.85654 29.4784 7.48455 29.0724 7.30313 28.574L0.120704 8.84042C-0.0607146 8.34197 -0.036697 7.79188 0.187474 7.31114C0.411644 6.83041 0.817605 6.45841 1.31605 6.27699L5.57521 4.72679C5.88804 3.94346 6.36278 3.23503 6.96836 2.64787C7.57393 2.06072 8.29669 1.60809 9.0893 1.3196C9.88192 1.03111 10.7265 0.913269 11.5678 0.973798C12.4092 1.03433 13.2282 1.27186 13.9714 1.67084L18.2305 0.12063C18.729 -0.0607887 19.2791 -0.0367707 19.7598 0.1874C20.2405 0.411571 20.6125 0.817531 20.7939 1.31598ZM7.38259 8.32566L14.9001 5.5895C14.5373 4.59261 13.7933 3.78069 12.8318 3.33235C11.8704 2.88401 10.7702 2.83597 9.77328 3.19881C8.77639 3.56165 7.96447 4.30564 7.51613 5.26711C7.06779 6.22858 7.01976 7.32877 7.38259 8.32566ZM18.9146 2.00002L15.7725 3.14365C16.2059 3.66938 16.5465 4.2652 16.7795 4.90546L17.1215 5.84515C17.2122 6.09438 17.2002 6.36942 17.0882 6.60979C16.9761 6.85016 16.7731 7.03616 16.5239 7.12687L7.12694 10.5471C6.87772 10.6378 6.60267 10.6258 6.3623 10.5137C6.12193 10.4016 5.93594 10.1986 5.84523 9.9494L5.50321 9.0097C5.27019 8.36942 5.1481 7.69409 5.14219 7.01275L2.00009 8.15638L9.18251 27.8899L26.097 21.7336L18.9146 2.00002Z"
        fill="#706D7E" />
</svg>