<svg width="32" height="32" viewBox="0 0 32 32" fill="none" xmlns="http://www.w3.org/2000/svg">
    <rect width="32" height="32" rx="10" fill="#252836" />
    <g clip-path="url(#clip0_5_5620)">
        <path opacity="0.2"
            d="M20.2416 16.1101C20.5235 16.8844 20.5694 17.725 20.3735 18.5255C20.1776 19.326 19.7488 20.0504 19.1412 20.6071C18.5336 21.1639 17.7746 21.5279 16.9601 21.6533C16.1456 21.7787 15.3122 21.6597 14.5653 21.3114C13.8185 20.9631 13.1916 20.4012 12.7641 19.6967C12.3366 18.9922 12.1276 18.1767 12.1635 17.3534C12.1995 16.5301 12.4788 15.7359 12.9661 15.0713C13.4533 14.4068 14.1268 13.9016 14.9012 13.6198C15.9396 13.2418 17.0856 13.2918 18.0871 13.7589C19.0887 14.2259 19.8637 15.0716 20.2416 16.1101ZM6.92644 11.2014C6.30693 11.4269 5.76819 11.831 5.37836 12.3627C4.98852 12.8944 4.7651 13.5297 4.73634 14.1883C4.70759 14.847 4.87479 15.4994 5.2168 16.063C5.55881 16.6266 6.06028 17.0761 6.65778 17.3548C7.25528 17.6334 7.92199 17.7286 8.57358 17.6283C9.22518 17.528 9.83241 17.2367 10.3185 16.7913C10.8045 16.3459 11.1476 15.7664 11.3043 15.126C11.461 14.4856 11.4243 13.8132 11.1988 13.1937C10.8964 12.3629 10.2765 11.6863 9.47523 11.3127C8.67401 10.9391 7.75718 10.8991 6.92644 11.2014ZM19.4557 6.64116C18.8362 6.86664 18.2974 7.27077 17.9076 7.80243C17.5178 8.3341 17.2943 8.96942 17.2656 9.62807C17.2368 10.2867 17.404 10.9391 17.746 11.5027C18.088 12.0663 18.5895 12.5159 19.187 12.7945C19.7845 13.0731 20.4512 13.1683 21.1028 13.068C21.7544 12.9677 22.3616 12.6765 22.8477 12.2311C23.3338 11.7857 23.6768 11.2061 23.8335 10.5658C23.9902 9.92537 23.9535 9.25291 23.728 8.6334C23.4257 7.80266 22.8057 7.12606 22.0045 6.75244C21.2032 6.37882 20.2864 6.33879 19.4557 6.64116Z"
            fill="#CECBDE" />
        <path
            d="M27.9871 14.0004C27.9273 14.092 27.8501 14.171 27.7597 14.2328C27.6694 14.2945 27.5678 14.3379 27.4607 14.3604C27.3536 14.3829 27.2431 14.3841 27.1356 14.3639C27.028 14.3438 26.9255 14.3026 26.8338 14.2428C26.1309 13.7801 25.3292 13.489 24.4933 13.3928C23.6573 13.2966 22.8104 13.398 22.0208 13.6889C21.8131 13.7645 21.5839 13.7544 21.3836 13.661C21.1833 13.5676 21.0283 13.3985 20.9527 13.1908C20.8771 12.9831 20.8871 12.7539 20.9805 12.5536C21.0739 12.3533 21.2431 12.1983 21.4507 12.1227C21.8901 11.9627 22.2758 11.6828 22.564 11.3146C22.8523 10.9464 23.0315 10.5048 23.0813 10.0399C23.1311 9.57497 23.0495 9.10541 22.8458 8.68453C22.6422 8.26365 22.3245 7.90832 21.929 7.65891C21.5335 7.4095 21.076 7.276 20.6084 7.27358C20.1409 7.27116 19.682 7.39992 19.2839 7.64522C18.8859 7.89052 18.5646 8.24254 18.3565 8.66129C18.1485 9.08004 18.0621 9.54874 18.1071 10.0141C18.1176 10.1231 18.1066 10.2331 18.0747 10.3378C18.0427 10.4426 17.9904 10.54 17.9208 10.6245C17.8512 10.709 17.7657 10.779 17.669 10.8304C17.5724 10.8819 17.4666 10.9138 17.3576 10.9243C17.2486 10.9349 17.1386 10.9239 17.0339 10.8919C16.9292 10.86 16.8318 10.8077 16.7472 10.7381C16.6627 10.6685 16.5927 10.5829 16.5413 10.4863C16.4898 10.3896 16.4579 10.2838 16.4474 10.1748C16.3851 9.52939 16.4744 8.87834 16.708 8.27347C16.9416 7.6686 17.3132 7.12661 17.7932 6.69061C18.2731 6.25462 18.8482 5.93666 19.4727 5.76203C20.0972 5.58741 20.7538 5.56094 21.3903 5.68473C22.0268 5.80853 22.6256 6.07916 23.1391 6.47511C23.6526 6.87106 24.0666 7.38138 24.3481 7.96549C24.6297 8.54959 24.7711 9.19135 24.761 9.83969C24.7508 10.488 24.5896 11.1251 24.2899 11.7001C25.5225 11.7736 26.7145 12.1683 27.7473 12.845C27.839 12.905 27.918 12.9826 27.9797 13.0731C28.0414 13.1637 28.0847 13.2656 28.1069 13.3729C28.1292 13.4803 28.1301 13.5909 28.1095 13.6986C28.089 13.8062 28.0474 13.9088 27.9871 14.0004ZM24.9077 21.9496C24.9949 22.0189 25.0672 22.1049 25.1206 22.2025C25.1739 22.3002 25.2071 22.4076 25.2183 22.5183C25.2295 22.629 25.2184 22.7408 25.1857 22.8472C25.1529 22.9536 25.0992 23.0523 25.0277 23.1375C24.9562 23.2228 24.8683 23.2929 24.7693 23.3436C24.6702 23.3944 24.562 23.4248 24.4511 23.433C24.3401 23.4413 24.2286 23.4273 24.1231 23.3917C24.0177 23.3562 23.9204 23.2999 23.8371 23.2262C23.0398 22.5707 22.0854 22.1343 21.068 21.9602C20.0507 21.7861 19.0055 21.8802 18.0356 22.2332C17.0657 22.5862 16.2046 23.186 15.5372 23.9733C14.8697 24.7606 14.4191 25.7083 14.2297 26.723C14.2148 26.8344 14.1775 26.9416 14.1201 27.0382C14.0627 27.1348 13.9863 27.2188 13.8956 27.2852C13.8049 27.3515 13.7017 27.3988 13.5922 27.4243C13.4827 27.4497 13.3692 27.4527 13.2586 27.4331C13.1479 27.4136 13.0423 27.3718 12.9482 27.3104C12.8541 27.2489 12.7734 27.1691 12.7109 27.0757C12.6484 26.9822 12.6055 26.8771 12.5847 26.7667C12.564 26.6562 12.5657 26.5427 12.5899 26.433C12.8744 24.8522 13.6583 23.4044 14.8266 22.3022C13.8295 21.989 12.9556 21.3711 12.3277 20.5356C11.6999 19.7 11.3497 18.6887 11.3263 17.6437C11.303 16.5988 11.6076 15.5729 12.1975 14.7101C12.7874 13.8473 13.6328 13.191 14.615 12.8336C15.5971 12.4761 16.6666 12.4354 17.673 12.7171C18.6795 12.9989 19.5724 13.589 20.2261 14.4045C20.8799 15.2199 21.2617 16.2198 21.3178 17.2634C21.374 18.3071 21.1017 19.3421 20.5392 20.223C22.1426 20.3163 23.6738 20.9215 24.9077 21.9496ZM17.4663 20.6675C18.0858 20.442 18.6245 20.0378 19.0143 19.5062C19.4042 18.9745 19.6276 18.3392 19.6564 17.6805C19.6851 17.0219 19.5179 16.3695 19.1759 15.8059C18.8339 15.2423 18.3324 14.7927 17.7349 14.5141C17.1374 14.2355 16.4707 14.1403 15.8191 14.2406C15.1675 14.3409 14.5603 14.6322 14.0742 15.0776C13.5882 15.523 13.2451 16.1025 13.0884 16.7429C12.9317 17.3832 12.9684 18.0557 13.1939 18.6752C13.4963 19.506 14.1162 20.1826 14.9175 20.5562C15.7187 20.9298 16.6355 20.9698 17.4663 20.6675ZM9.98961 17.181C9.91402 16.9734 9.75902 16.8042 9.55871 16.7108C9.35841 16.6174 9.1292 16.6074 8.92151 16.683C8.48212 16.8429 8.0067 16.8763 7.54925 16.7795C7.0918 16.6828 6.67066 16.4596 6.33366 16.1355C5.99666 15.8114 5.75731 15.3993 5.6428 14.9459C5.52829 14.4926 5.54321 14.0162 5.68586 13.5709C5.82852 13.1257 6.09319 12.7293 6.44981 12.4269C6.80643 12.1245 7.24071 11.9282 7.70332 11.8602C8.16593 11.7923 8.63833 11.8554 9.06686 12.0425C9.49538 12.2295 9.86285 12.533 10.1275 12.9185C10.2527 13.1008 10.4451 13.2259 10.6625 13.2663C10.8799 13.3067 11.1045 13.2591 11.2868 13.1339C11.4691 13.0088 11.5942 12.8163 11.6346 12.5989C11.675 12.3815 11.6274 12.157 11.5022 11.9747C11.1351 11.4403 10.6482 10.9989 10.0804 10.6857C9.51266 10.3725 8.87963 10.1962 8.2317 10.1707C7.58378 10.1452 6.93885 10.2713 6.34823 10.5389C5.75762 10.8066 5.23761 11.2084 4.8296 11.7123C4.42159 12.2163 4.13683 12.8085 3.99797 13.4419C3.85912 14.0753 3.87001 14.7323 4.02977 15.3608C4.18954 15.9892 4.49377 16.5717 4.91826 17.0618C5.34274 17.552 5.87577 17.9363 6.47494 18.1843C5.57917 19.0329 4.92085 20.101 4.56529 21.2826C4.50102 21.4941 4.52343 21.7225 4.62757 21.9176C4.73171 22.1126 4.90907 22.2583 5.12062 22.3225C5.33217 22.3868 5.56058 22.3644 5.75562 22.2603C5.95065 22.1561 6.09632 21.9788 6.16059 21.7672C6.40166 20.961 6.82866 20.2226 7.40721 19.6116C7.98576 19.0005 8.6997 18.5339 9.49155 18.2491C9.69923 18.1735 9.86838 18.0185 9.96179 17.8182C10.0552 17.6179 10.0652 17.3887 9.98961 17.181Z"
            fill="#706D7E" />
    </g>
    <defs>
        <clipPath id="clip0_5_5620">
            <rect width="26.6667" height="26.6667" fill="white"
                transform="translate(2.66669 2.66669)" />
        </clipPath>
    </defs>
</svg>