<svg width="16" height="16" viewBox="0 0 16 16" fill="none" xmlns="http://www.w3.org/2000/svg">
    <path
        d="M13.3537 10.3538C13.3073 10.4003 13.2521 10.4371 13.1914 10.4623C13.1307 10.4875 13.0657 10.5004 13 10.5004C12.9343 10.5004 12.8692 10.4875 12.8085 10.4623C12.7478 10.4371 12.6927 10.4003 12.6462 10.3538L7.99997 5.7069L3.35372 10.3538C3.2599 10.4476 3.13265 10.5003 2.99997 10.5003C2.86729 10.5003 2.74004 10.4476 2.64622 10.3538C2.5524 10.26 2.49969 10.1327 2.49969 10C2.49969 9.86735 2.5524 9.7401 2.64622 9.64628L7.64622 4.64628C7.69266 4.59979 7.7478 4.56291 7.8085 4.53775C7.8692 4.51259 7.93427 4.49963 7.99997 4.49963C8.06568 4.49963 8.13074 4.51259 8.19144 4.53775C8.25214 4.56291 8.30729 4.59979 8.35372 4.64628L13.3537 9.64628C13.4002 9.69271 13.4371 9.74786 13.4623 9.80856C13.4874 9.86926 13.5004 9.93432 13.5004 10C13.5004 10.0657 13.4874 10.1308 13.4623 10.1915C13.4371 10.2522 13.4002 10.3073 13.3537 10.3538Z"
        fill="#706D7E" />
</svg>