<svg width="28" height="28" viewBox="0 0 28 28" fill="none" xmlns="http://www.w3.org/2000/svg">
    <rect width="28" height="28" rx="8" fill="#00C5D6" />
    <path
        d="M22.25 14C22.25 14.1823 22.1776 14.3572 22.0486 14.4861C21.9197 14.6151 21.7448 14.6875 21.5625 14.6875H14.6875V21.5625C14.6875 21.7448 14.6151 21.9197 14.4861 22.0486C14.3572 22.1776 14.1823 22.25 14 22.25C13.8177 22.25 13.6428 22.1776 13.5139 22.0486C13.3849 21.9197 13.3125 21.7448 13.3125 21.5625V14.6875H6.4375C6.25516 14.6875 6.0803 14.6151 5.95136 14.4861C5.82243 14.3572 5.75 14.1823 5.75 14C5.75 13.8177 5.82243 13.6428 5.95136 13.5139C6.0803 13.3849 6.25516 13.3125 6.4375 13.3125H13.3125V6.4375C13.3125 6.25516 13.3849 6.0803 13.5139 5.95136C13.6428 5.82243 13.8177 5.75 14 5.75C14.1823 5.75 14.3572 5.82243 14.4861 5.95136C14.6151 6.0803 14.6875 6.25516 14.6875 6.4375V13.3125H21.5625C21.7448 13.3125 21.9197 13.3849 22.0486 13.5139C22.1776 13.6428 22.25 13.8177 22.25 14Z"
        fill="white" />
</svg>